<svg xmlns="http://www.w3.org/2000/svg" viewBox="0 0 200 200">
  <rect width="200" height="200" fill="#eef7ff"/>
  <defs>
    <linearGradient id="tecido" x1="0" y1="0" x2="0" y2="1">
      <stop offset="0" stop-color="#fda490"/>
      <stop offset="1" stop-color="#f0806c"/>
    </linearGradient>
  </defs>
  <!-- camiseta -->
  <path d="M78 48 L58 56 Q42 64 38 82 L46 99 Q48 103 53 101 L65 95 L65 150 Q65 158 73 158 L127 158 Q135 158 135 150 L135 95 L147 101 Q152 103 154 99 L162 82 Q158 64 142 56 L122 48 Q114 62 100 62 Q86 62 78 48 Z" fill="url(#tecido)"/>
  <!-- gola -->
  <path d="M80 49 Q100 64 120 49" stroke="#d95f4c" stroke-width="6" fill="none" stroke-linecap="round"/>
  <!-- bainhas das mangas -->
  <path d="M47 97 l14 -7 M153 97 l-14 -7" stroke="#d95f4c" stroke-width="3" stroke-linecap="round"/>
  <!-- bainha inferior -->
  <line x1="68" y1="152" x2="132" y2="152" stroke="#d95f4c" stroke-width="3" stroke-linecap="round"/>
  <!-- estampa -->
  <text x="100" y="102" text-anchor="middle" font-family="monospace" font-size="15" font-weight="bold" fill="#ffffff">Teste.</text>
  <text x="100" y="120" text-anchor="middle" font-family="monospace" font-size="15" font-weight="bold" fill="#7f2d20">Tudo()</text>
</svg>
