<svg xmlns="http://www.w3.org/2000/svg" viewBox="0 0 200 200">
  <rect width="200" height="200" fill="#eef7ff"/>
  <defs>
    <linearGradient id="tecido" x1="0" y1="0" x2="0" y2="1">
      <stop offset="0" stop-color="#9ca3af"/>
      <stop offset="1" stop-color="#6b7280"/>
    </linearGradient>
  </defs>
  <!-- jaqueta -->
  <path d="M76 50 L56 58 Q40 66 36 84 L45 103 Q47 107 52 105 L64 99 L64 154 Q64 162 72 162 L128 162 Q136 162 136 154 L136 99 L148 105 Q153 107 155 103 L164 84 Q160 66 144 58 L124 50 Q116 60 100 60 Q84 60 76 50 Z" fill="url(#tecido)"/>
  <!-- gola alta -->
  <path d="M80 50 q4 12 20 12 q16 0 20 -12 l-6 -6 q-14 8 -28 0 z" fill="#4b5563"/>
  <!-- zíper central -->
  <line x1="100" y1="62" x2="100" y2="162" stroke="#1f2937" stroke-width="5"/>
  <rect x="96" y="76" width="8" height="12" rx="3" fill="#fbbf24"/>
  <!-- bolsos -->
  <path d="M74 122 l16 14 M126 122 l-16 14" stroke="#1f2937" stroke-width="4" stroke-linecap="round"/>
  <!-- bainhas das mangas -->
  <path d="M46 101 l14 -7 M154 101 l-14 -7" stroke="#1f2937" stroke-width="3" stroke-linecap="round"/>
</svg>
