<svg xmlns="http://www.w3.org/2000/svg" viewBox="0 0 200 200">
  <rect width="200" height="200" fill="#eef7ff"/>
  <ellipse cx="100" cy="115" rx="42" ry="36" fill="#dc2626"/>
  <circle cx="86" cy="105" r="7" fill="#132322"/>
  <circle cx="116" cy="118" r="8" fill="#132322"/>
  <circle cx="102" cy="138" r="6" fill="#132322"/>
  <circle cx="100" cy="70" r="26" fill="#132322"/>
  <circle cx="91" cy="66" r="5" fill="#ffffff"/>
  <circle cx="109" cy="66" r="5" fill="#ffffff"/>
  <circle cx="91" cy="66" r="2.5" fill="#132322"/>
  <circle cx="109" cy="66" r="2.5" fill="#132322"/>
  <path d="M93 78 q7 6 14 0" stroke="#ffffff" stroke-width="3" fill="none" stroke-linecap="round"/>
  <path d="M84 48 l-8 -12 M116 48 l8 -12" stroke="#132322" stroke-width="4" stroke-linecap="round"/>
  <circle cx="76" cy="36" r="5" fill="#dc2626"/>
  <circle cx="124" cy="36" r="5" fill="#dc2626"/>
  <line x1="100" y1="95" x2="100" y2="145" stroke="#7f1d1d" stroke-width="3"/>
  <path d="M62 105 l-16 -8 M62 120 l-18 0 M64 133 l-15 8 M138 105 l16 -8 M138 120 l18 0 M136 133 l15 8" stroke="#132322" stroke-width="4" stroke-linecap="round"/>
</svg>
